<svg width="40" height="40" viewBox="0 0 40 40" fill="none" xmlns="http://www.w3.org/2000/svg">
<rect width="40" height="40" rx="20" fill="white"/>
<path d="M3.55172 27L4.23172 23.2H2.71172V21.5H4.51172L5.13172 17.9H3.41172V16.2H5.43172L6.11172 12.4H7.87172L7.19172 16.2H10.0317L10.7117 12.4H12.4717L11.7917 16.2H13.3117V17.9H11.4917L10.8717 21.5H12.6117V23.2H10.5717L9.91172 27H8.15172L8.83172 23.2H5.97172L5.31172 27H3.55172ZM6.27172 21.5H9.11172L9.73172 17.9H6.89172L6.27172 21.5Z" fill="#222222"/>
<path d="M22.8439 29.22C21.6706 29.22 20.7439 28.8933 20.0639 28.24C19.3839 27.6 19.0972 26.74 19.2039 25.66L19.5039 22.62C19.5572 22.0733 19.4639 21.66 19.2239 21.38C18.9839 21.1 18.5706 20.96 17.9839 20.96H15.3839V18.66H17.9839C18.5706 18.66 18.9839 18.52 19.2239 18.24C19.4639 17.96 19.5572 17.5533 19.5039 17.02L19.2039 13.88C19.0972 12.8267 19.3839 11.9867 20.0639 11.36C20.7439 10.72 21.6706 10.4 22.8439 10.4H24.2239V12.7H23.2039C22.7106 12.7 22.3306 12.8267 22.0639 13.08C21.7972 13.32 21.6772 13.6667 21.7039 14.12L22.0039 17.24C22.0706 17.92 21.9039 18.48 21.5039 18.92C21.1172 19.36 20.5706 19.64 19.8639 19.76C20.5706 19.8933 21.1172 20.1933 21.5039 20.66C21.9039 21.1267 22.0706 21.7 22.0039 22.38L21.7039 25.5C21.6639 25.94 21.7772 26.2867 22.0439 26.54C22.3239 26.78 22.7106 26.9 23.2039 26.9H24.2239V29.22H22.8439ZM27.7761 29.22V26.9H28.7961C29.2894 26.9 29.6694 26.78 29.9361 26.54C30.2161 26.2867 30.3361 25.94 30.2961 25.5L29.9961 22.38C29.9294 21.7 30.0894 21.1267 30.4761 20.66C30.8761 20.18 31.4294 19.88 32.1361 19.76C31.4161 19.64 30.8628 19.36 30.4761 18.92C30.0894 18.48 29.9294 17.92 29.9961 17.24L30.2961 14.12C30.3228 13.6667 30.2028 13.32 29.9361 13.08C29.6694 12.8267 29.2894 12.7 28.7961 12.7H27.7761V10.4H29.1561C30.3294 10.4 31.2561 10.72 31.9361 11.36C32.6161 11.9867 32.9028 12.8267 32.7961 13.88L32.4961 17.02C32.4428 17.5533 32.5361 17.96 32.7761 18.24C33.0161 18.52 33.4294 18.66 34.0161 18.66H36.6161V20.96H34.0161C33.4294 20.96 33.0161 21.1 32.7761 21.38C32.5361 21.66 32.4428 22.0733 32.4961 22.62L32.7961 25.66C32.9028 26.74 32.6161 27.6 31.9361 28.24C31.2561 28.8933 30.3294 29.22 29.1561 29.22H27.7761Z" fill="#EB5757"/>
</svg>
